<svg xmlns="http://www.w3.org/2000/svg" width="29" height="42.398"><defs><style>.a,.b{fill:#eff4f4}.a{font-size:8px;font-family:GothamPro-Light,Gotham Pro;font-weight:300}</style></defs><text class="a" transform="translate(0 41.398)"><tspan x="0" y="0">FUNDS</tspan></text><text class="a" transform="translate(0 41.398)"><tspan x="0" y="0">FUNDS</tspan></text><path class="b" d="M3.381 0H22.8a2.954 2.954 0 012.909 2.909V5.19a2.9 2.9 0 012.363 2.91v14.39a2.887 2.887 0 01-2.831 2.91H2.909A2.954 2.954 0 010 22.489V3.3A3.34 3.34 0 013.381 0zm0 6.762a3.74 3.74 0 01-1.809-.55v16.277a1.325 1.325 0 001.337 1.337h22.332a1.31 1.31 0 001.259-1.337v-3.224h-9.908a3.775 3.775 0 01-3.774-3.774 3.726 3.726 0 013.774-3.774H26.5V8.1a1.262 1.262 0 00-1.258-1.337zM26.5 17.692v-4.4h-9.908a2.15 2.15 0 00-2.2 2.2 2.2 2.2 0 002.2 2.2zM22.8 1.573H3.381a1.779 1.779 0 00-1.808 1.808A1.779 1.779 0 003.381 5.19H24.14V2.909a1.325 1.325 0 00-1.34-1.336z"/><circle class="b" cx="1" cy="1" r="1" transform="translate(16 14.398)"/></svg>