<svg xmlns="http://www.w3.org/2000/svg" width="28.145" height="42"><text transform="translate(2 41)" font-size="8" font-family="GothamPro-Light,Gotham Pro" font-weight="300" fill="#fff"><tspan x="0" y="0">HOME</tspan></text><text transform="translate(2 41)" fill="#eff4f4" font-size="8" font-family="GothamPro-Light,Gotham Pro" font-weight="300"><tspan x="0" y="0">HOME</tspan></text><path d="M23.998 11.657v11.658A1.709 1.709 0 0122.313 25h-4.494a1.709 1.709 0 01-1.685-1.685v-4.986a.3.3 0 00-.281-.281h-3.23a.3.3 0 00-.281.281v4.986A1.709 1.709 0 0110.656 25H6.021a1.709 1.709 0 01-1.685-1.685V11.657a.7.7 0 111.4 0v11.658a.3.3 0 00.281.281h4.635a.3.3 0 00.281-.281v-4.986a1.709 1.709 0 011.685-1.685h3.23a1.709 1.709 0 011.685 1.685v4.986a.3.3 0 00.281.281h4.494a.3.3 0 00.281-.281V11.657a.663.663 0 01.7-.7.7.7 0 01.709.7zm3.862-1.264L14.448.211a1.162 1.162 0 00-1.334 0L.263 10.463a.755.755 0 00-.14.983.867.867 0 00.562.281 1 1 0 00.421-.14l12.64-10.042 13.272 10.042a.687.687 0 00.983-.14.771.771 0 00-.14-1.054z" fill="#eff4f4"/></svg>