<svg xmlns="http://www.w3.org/2000/svg" width="41" height="42.398"><defs><style>.a,.b{fill:#eff4f4}.a{font-size:8px;font-family:GothamPro-Light,Gotham Pro;font-weight:300}</style></defs><text class="a" transform="translate(0 41.398)"><tspan x="0" y="0">MARKETS</tspan></text><text class="a" transform="translate(0 41.398)"><tspan x="0" y="0">MARKETS</tspan></text><path class="b" d="M29.1 25.4H11.638a1.592 1.592 0 01-1.587-1.589V1.587A1.592 1.592 0 0111.638 0H29.1a1.592 1.592 0 011.587 1.587v22.224A1.592 1.592 0 0129.1 25.4zm-17.462-1.589H29.1V1.587H11.638v22.224z"/><path class="b" d="M25.925 6.349h-7.937a.75.75 0 01-.794-.793.75.75 0 01.794-.794h7.937a.75.75 0 01.794.794.75.75 0 01-.794.793zm-11.111 0a.814.814 0 01-.794-.793.721.721 0 01.238-.556.767.767 0 011.111 0 .767.767 0 010 1.111.721.721 0 01-.555.238zm11.111 4.762h-7.937a.794.794 0 010-1.587h7.937a.794.794 0 010 1.587zm-11.111 0a.786.786 0 01-.556-1.349.766.766 0 011.111 0 .794.794 0 01-.556 1.349zm11.111 9.525h-7.937a.794.794 0 010-1.587h7.937a.794.794 0 010 1.587zm-11.111 0a.786.786 0 01-.556-1.349.766.766 0 011.111 0 .794.794 0 01-.556 1.349zm11.111-4.762h-7.937a.794.794 0 010-1.587h7.937a.794.794 0 010 1.587zm-11.111 0a.786.786 0 01-.556-1.349.767.767 0 011.111 0 .794.794 0 01-.556 1.349z"/></svg>