<svg xmlns="http://www.w3.org/2000/svg" width="34.123" height="38.409"><path d="M16.915.007A1.325 1.325 0 0015.782 1.3v1.36a9.957 9.957 0 00-5.945 2.988 13.354 13.354 0 00-3.412 6.944l-1.706 9.384a3.727 3.727 0 01-2.106 3.026A7.158 7.158 0 00.92 26.348 4.129 4.129 0 000 29.025a3.433 3.433 0 003.412 3.412h7.264a6.4 6.4 0 0012.77 0h7.264a3.433 3.433 0 003.412-3.412 4.129 4.129 0 00-.922-2.677 7.158 7.158 0 00-1.693-1.346 3.726 3.726 0 01-2.107-3.028l-1.7-9.384a13.36 13.36 0 00-3.414-6.942 9.96 9.96 0 00-5.945-2.986V1.3A1.336 1.336 0 0016.915.007zm.147 5.132a7.223 7.223 0 015.385 2.279 10.93 10.93 0 012.745 5.63l1.708 9.379a6.877 6.877 0 003.212 4.706 6.1 6.1 0 011.146.866 1.283 1.283 0 01.307 1.026.825.825 0 01-.853.853h-27.3a.825.825 0 01-.853-.853 1.283 1.283 0 01.307-1.026 6.1 6.1 0 011.146-.866 6.878 6.878 0 003.213-4.706l1.706-9.379a10.927 10.927 0 012.746-5.625 7.223 7.223 0 015.384-2.284zM13.3 32.437h7.52a3.776 3.776 0 01-7.518 0z" fill="white"/></svg>