<svg xmlns="http://www.w3.org/2000/svg" width="36" height="45.019"><defs><style>.b{fill:#fff}</style></defs><text transform="translate(0 44.019)" fill="#eff4f4" font-size="8" font-family="GothamPro-Light,Gotham Pro" font-weight="300"><tspan x="0" y="0">PROFILE</tspan></text><path class="b" d="M18.01 14.744a4.62 4.62 0 10-4.637-4.6 4.627 4.627 0 004.637 4.6zm0-7.905a3.3 3.3 0 11-3.3 3.3 3.31 3.31 0 013.3-3.301zm5.904 10.707a10.337 10.337 0 00-5.9-1.868 10.1 10.1 0 00-5.9 1.868 5.252 5.252 0 00-2.235 4.3.667.667 0 101.334 0 3.967 3.967 0 011.668-3.236 8.839 8.839 0 015.137-1.6 9.086 9.086 0 015.137 1.6 3.967 3.967 0 011.668 3.236.667.667 0 101.334 0 5.207 5.207 0 00-2.243-4.3z"/><path class="b" d="M18.01 28.019a14.01 14.01 0 1114.01-14.01 14.026 14.026 0 01-14.01 14.01zm0-26.685a12.675 12.675 0 1012.675 12.675A12.69 12.69 0 0018.01 1.334z"/></svg>