<svg xmlns="http://www.w3.org/2000/svg" width="40.216" height="36"><path d="M32.036 9.906a12.093 12.093 0 00-23.982 1.845v.593c0 .039-.011.075-.011.114V24.09a5.837 5.837 0 01-2.445-10.925 1.3 1.3 0 00-1.262-2.269 8.417 8.417 0 004.975 15.755h.029a1.213 1.213 0 00.122-.012h.01a1.3 1.3 0 001.167-1.285V13.875c0-.037.012-.073.012-.113v-2.015a9.479 9.479 0 0118.948 0v.537a1.209 1.209 0 00-.016.17v12.542c0 .033-.01.066-.01.1v2.92a3.241 3.241 0 01-3.387 3.388h-1.785a3.382 3.382 0 00-3.155-2.181h-2.223a3.387 3.387 0 000 6.774h2.223a3.388 3.388 0 003.088-2.011c.035 0 .067.011.1.011h1.748a5.788 5.788 0 005.983-5.984v-1.269a8.426 8.426 0 00-.131-16.841zm-10.792 23.5h-2.223a.791.791 0 010-1.582h2.223a.791.791 0 110 1.582zm10.934-9.254V13.937a1.29 1.29 0 00.016-.17v-1.255a5.834 5.834 0 01-.016 11.64z" fill="white"/></svg>